<svg width="256px" height="209px" viewBox="0 0 256 209" version="1.1" xmlns="http://www.w3.org/2000/svg" xmlns:xlink="http://www.w3.org/1999/xlink">
    <g id="Page-1" stroke="none" stroke-width="1" fill="none" fill-rule="evenodd">
        <g id="twitter" fill="#FFFFFF">
            <path d="M255.52531,25.2575197 C246.091206,29.4149213 236.017502,32.2451524 225.384148,33.5243529 C236.209382,27.0164204 244.540176,16.7348463 248.457727,4.48650156 C238.320063,10.4028039 227.079089,14.7201056 215.118564,17.1186065 C205.55654,6.8850025 191.933055,0.489 176.806509,0.489 C147.832618,0.489 124.327309,23.9943092 124.327309,52.9362205 C124.327309,57.0936221 124.807009,61.0911237 125.686459,64.9287252 C82.065722,62.8500244 43.3858969,41.9031162 17.4980768,10.2429038 C12.9569151,17.9340968 10.3985141,26.8885003 10.3985141,36.6424041 C10.3985141,54.8710112 19.6727177,70.9089875 33.7439232,80.3271012 C25.1412998,80.0552711 17.0343666,77.6887502 9.96678389,73.7711986 L9.96678389,74.4107989 C9.96678389,99.8349088 28.0354909,121.069637 52.0684703,125.898619 C47.6552286,127.081879 43.0181268,127.72148 38.2371149,127.72148 C34.8792136,127.72148 31.6812124,127.40168 28.4832111,126.794059 C35.1990137,147.645027 54.5469213,162.819543 77.5725303,163.251274 C59.6637233,177.322479 36.9579144,185.701242 12.4932049,185.701242 C8.33580325,185.701242 4.17840162,185.461392 0.021,184.981692 C23.3664091,199.852398 50.8692199,208.550961 80.6106315,208.550961 C177.190269,208.550961 229.95729,128.60093 229.95729,59.364203 C229.95729,57.1256021 229.95729,54.8870012 229.79739,52.6484004 C240.030994,45.2929975 248.985397,36.0187939 256.021,25.4653898 L255.52531,25.2575197 Z" id="Path"></path>
        </g>
    </g>
</svg>