
<svg width="380px" height="140px" viewBox="0 0 380 140" version="1.1" xmlns="http://www.w3.org/2000/svg" xmlns:xlink="http://www.w3.org/1999/xlink">
    <g id="Page-1" stroke="none" stroke-width="1" fill="none" fill-rule="evenodd">
        <g id="nearst" fill="#FFFFFF" fill-rule="nonzero">
            <polyline id="Fill-1" points="78.241 82.136 78.241 30 96.654 30 96.654 110.031 77.329 110.031 48.516 58.584 48.516 110.031 30 110.031 30 30 49.317 30 78.241 82.136"></polyline>
            <path d="M123.371,86.266 C123.715,92.898 126.461,98.498 135.603,98.498 C141.664,98.498 144.643,95.756 145.777,92.215 L162.934,92.215 C161.334,102.617 151.502,111.075 135.724,111.075 C116.398,111.075 106,99.07 106,82.035 C106,65.916 116.175,53 135.267,53 C152.527,53 163.613,64.66 163.613,78.148 C163.613,80.438 163.613,82.951 163.045,86.266 L123.371,86.266 Z M123.371,76.207 L146.466,76.207 C146.466,69.118 141.784,64.66 135.146,64.66 C128.285,64.66 123.371,68.774 123.371,76.207 Z" id="Fill-2"></path>
            <path d="M232.161,54.373 L232.161,109.479 L214.67,109.479 L214.67,101.706 C212.045,106.737 204.95,110.852 197.866,110.852 C181.976,110.852 171,98.387 171,81.924 C171,65.46 181.976,53 197.866,53 C204.95,53 212.045,57.231 214.67,62.263 L214.67,54.373 L232.161,54.373 Z M214.67,81.924 C214.67,74.379 209.41,67.862 201.526,67.862 C193.64,67.862 188.381,74.379 188.381,81.924 C188.381,89.585 193.64,95.99 201.526,95.99 C209.41,95.99 214.67,89.585 214.67,81.924 Z" id="Fill-3"></path>
            <path d="M323.314,62.519 C323.314,70.111 316.788,72.843 308.793,72.843 C299.66,72.843 294,68.645 294,61.253 L303.998,61.253 C303.998,64.651 306.13,65.982 309.127,65.982 C311.584,65.982 313.316,65.116 313.316,62.985 C313.316,60.518 310.794,60.187 304.724,58.186 C299.399,56.52 294.8,54.988 294.8,48.793 C294.8,42.132 300.331,39 308.988,39 C318.314,39 322.849,43.729 322.849,49.859 L312.785,49.859 C312.785,47.196 311.388,45.665 308.587,45.665 C306.53,45.665 304.789,46.597 304.789,48.528 C304.789,50.86 307.592,51.261 312.991,53.058 C318.65,54.723 323.314,56.255 323.314,62.519" id="Fill-4"></path>
            <path d="M350.247,70.635 C348.721,70.9 346.449,71.17 343.452,71.17 C338.658,71.17 332.067,70.57 332.067,59.841 L332.067,46.119 L327,46.119 L327,38.522 L332.067,38.522 L332.067,29 L342.184,29 L342.184,38.522 L349.512,38.522 L349.512,46.119 L342.184,46.119 L342.184,57.579 C342.184,62.308 344.057,63.038 346.587,63.038 C347.855,63.038 349.316,62.973 350.247,62.838 L350.247,70.635" id="Fill-5"></path>
            <path d="M282.578,70.814 C280.176,70.242 278.689,70.014 276.629,70.014 C266.792,70.014 260.5,74.933 260.5,88.545 L260.5,110.05 L243,110.05 L243,54.915 L260.5,54.915 L260.5,63.837 C263.018,58.689 269.537,54 277.544,54 C279.374,54 280.977,54.227 282.578,54.915 L282.578,70.814" id="Fill-9"></path>
            <path d="M0,140 L0,0 L380,0 L380,140 L0,140 Z M10,130 L370,130 L370,10 L10,10 L10,130 Z" id="Fill-7"></path>
        </g>
    </g>
</svg>